<?xml version="1.0" encoding="utf-8"?>
<!-- Generator: Adobe Illustrator 16.0.0, SVG Export Plug-In . SVG Version: 6.00 Build 0)  -->
<!DOCTYPE svg PUBLIC "-//W3C//DTD SVG 1.1//EN" "http://www.w3.org/Graphics/SVG/1.1/DTD/svg11.dtd">
<svg version="1.1" id="Capa_1" xmlns="http://www.w3.org/2000/svg" xmlns:xlink="http://www.w3.org/1999/xlink" x="0px" y="0px"
	 width="1903.526px" height="360.631px" viewBox="0 0 1903.526 360.631" enable-background="new 0 0 1903.526 360.631"
	 xml:space="preserve">
<g>
	<g>
		<rect x="1227.896" y="120.485" fill="#009BDB" width="27.322" height="161.221"/>
		<path fill="#009BDB" d="M1298.326,221.587c2.314,10.94,7.58,21.856,15.789,27.755c8.227,5.896,17.17,8.695,26.848,8.695
			c14.914,0,27.424-6.278,37.521-18.67l19.189,14.475c-14.406,18.66-33.723,27.961-57.914,27.961
			c-18.545,0-34.072-6.364-46.588-19.061c-12.49-12.7-18.744-28.492-18.744-47.34c0-17.642,6.33-32.949,18.982-45.896
			c12.65-12.961,28.092-19.447,46.35-19.447c17.947,0,33.322,6.886,46.119,20.036c12.809,13.155,19.109,29.64,18.906,51.492
			 M1301.68,199.734h75.576c-8.459-16.4-20.959-25.714-37.496-25.714c-18.051,0-30.947,9.313-38.723,25.714"/>
		<path fill="#009BDB" d="M1525.75,240.722v29.564c-13.664,7.663-25.867,11.493-38.477,11.493c-17.236,0-32.068-6.465-45.027-19.428
			c-12.953-12.95-19.299-27.951-19.299-44.991c0-19.346,6.533-35.412,19.432-48.161c12.918-12.759,28.582-19.129,48.041-19.129
			c11.588,0,24.408,3.016,35.33,9.074v29.323c-10.922-8.454-25.168-12.691-36.955-12.691c-10.891,0-20.158,3.828-28.309,11.485
			c-8.176,7.674-12.115,16.638-12.115,26.922c0,11.595,3.893,21.349,11.555,29.26c7.662,7.918,16.521,11.875,27.619,11.875
			c11.291,0,24.541-5.042,38.205-15.113"/>
		<polygon fill="#009BDB" points="1566.734,120.485 1594.055,120.485 1594.055,156.008 1618.658,156.008 1618.658,180.602 
			1594.055,180.602 1594.055,281.706 1566.734,281.706 1566.734,180.602 1544.879,180.602 1544.879,156.008 1566.734,156.008 		"/>
		<path fill="#009BDB" d="M1665.115,156.008v26.726c5.477-10.288,10.947-17.724,16.533-22.309
			c5.607-4.586,12.563-6.885,21.539-6.885c2.521,0,6.002,0.604,10.736,1.823l-8.102,26.309c-5.035-1.003-8.398-1.513-10.012-1.513
			c-8.875,0-16.016,3.099-22.014,9.297c-5.996,6.201-8.682,13.942-8.682,23.212v69.038h-27.33V156.008H1665.115z"/>
		<path fill="#009BDB" d="M1736.066,120.809c0-4.571,1.693-8.525,5.08-11.866c3.381-3.343,7.406-5.021,12.074-5.021
			c4.563,0,8.512,1.678,11.855,5.021c3.359,3.341,5.029,7.295,5.029,11.866c0,4.664-1.67,8.633-5.029,11.948
			c-3.344,3.289-7.293,4.935-11.855,4.935c-4.668,0-8.693-1.646-12.074-4.935C1737.76,129.441,1736.066,125.473,1736.066,120.809"/>
		<rect x="1738.895" y="156.008" fill="#009BDB" width="27.33" height="125.698"/>
		<path fill="#009BDB" d="M1894.66,240.722v29.564c-10.938,7.663-25.727,11.493-38.33,11.493c-17.246,0-32.004-6.465-44.951-19.428
			c-12.959-12.95-19.262-27.951-19.262-44.991c0-19.346,6.533-35.412,19.443-48.161c12.902-12.759,28.443-19.129,47.896-19.129
			c11.59,0,24.266,3.016,35.203,9.074v29.323c-10.938-8.454-25.023-12.691-36.822-12.691c-10.883,0-20.07,3.828-28.24,11.485
			c-8.17,7.674-12.08,16.638-12.08,26.922c0,11.595,3.91,21.349,11.59,29.26c7.658,7.918,16.387,11.875,27.48,11.875
			c11.291,0,24.404-5.042,38.072-15.113"/>
		<path fill="#009BDB" d="M1208.762,221.587h-105.113c2.324,10.94,7.588,21.856,15.809,27.755
			c8.217,5.896,17.164,8.695,26.846,8.695c14.922,0,27.414-6.278,37.496-18.67l19.211,14.475
			c-14.416,18.66-33.723,27.961-57.92,27.961c-18.553,0-34.08-6.364-46.584-19.061c-12.488-12.7-18.74-28.492-18.74-47.34
			c0-17.642,6.324-32.949,18.975-45.896c12.646-12.961,28.096-19.447,46.35-19.447c17.945,0,33.314,6.886,46.115,20.036
			c12.811,13.155,19.123,29.64,18.906,51.492 M1107.658,199.734h74.945c-8.475-16.4-20.979-25.714-37.514-25.714
			c-18.047,0-30.949,9.313-38.717,25.714"/>
	</g>
	<g>
		<path fill="#002075" d="M554.884,175.125c9.35-9.398,14.279-22.387,14.279-37.932c0-17.021-6.151-31.422-17.786-41.944
			c-11.34-10.272-26.872-15.531-44.9-15.531h-69.049v202.085H521.2c17.795,0,33.09-5.667,44.236-16.065
			c11.274-10.536,17.231-25.104,17.231-41.982C582.667,201.481,572.849,184.377,554.884,175.125 M477.851,160.554v-42.926
			l27.904-0.015c15.479,0,22.688,7.173,22.688,21.22c0,12.611-9.129,21.721-22.688,21.721 M540.976,219.981
			c0,5.01-1.693,21.405-23.533,21.405h-39.224l-0.02-42.944h39.244C531.091,198.442,540.976,207.555,540.976,219.981"/>
		<path fill="#002075" d="M663.317,79.718l-80.649,202.085h45.349l15.655-40.416h80.104l15.662,40.416h45.211L704.006,79.718
			H663.317z M707.54,198.442h-47.536l23.727-61.621L707.54,198.442z"/>
		<polygon fill="#002075" points="990.143,79.718 948.708,213.773 906.519,79.718 867.181,79.718 830.255,213.729 787.768,79.718 
			735.914,79.718 811.604,281.803 851.272,281.803 888.259,160.544 930.181,281.803 970.127,281.803 1037.623,79.718 		"/>
	</g>
	<path fill="#002075" d="M240.776,292.439h-47.205V155.785l-65.365,136.654H81.77V191.26l-21.238,34.099L21.3,201.314
		l61.655-100.526l44.063,0.001v86.627l56.489-118.57h55.313v131.337c0,0,73.546-131.773,73.366-131.986
		C280.732,31.314,233.998,8.645,181.821,8.645c-94.702,0-171.474,77.036-171.474,171.742c0,94.711,76.772,171.6,171.474,171.6
		c94.707,0,171.486-76.691,171.486-171.413c0-23.648-4.789-45.629-13.451-66.133L240.776,292.439z"/>
</g>
</svg>
