<?xml version="1.0" encoding="utf-8"?>
<!-- Generator: Adobe Illustrator 15.0.0, SVG Export Plug-In . SVG Version: 6.00 Build 0)  -->
<!DOCTYPE svg PUBLIC "-//W3C//DTD SVG 1.1//EN" "http://www.w3.org/Graphics/SVG/1.1/DTD/svg11.dtd">
<svg version="1.1" id="Layer_1" xmlns="http://www.w3.org/2000/svg" xmlns:xlink="http://www.w3.org/1999/xlink" x="0px" y="0px"
	 width="171px" height="25px" viewBox="0 0 171 25" enable-background="new 0 0 171 25" xml:space="preserve">
<g>
	<path fill="#008349" d="M19.113,15.173c1.869,0,3.887-2.005,6.887-4.717V0H0v10.122c1.7-1.588,4.298-3.556,6.376-3.556
		C10.07,6.566,15.952,15.173,19.113,15.173z"/>
	<path fill="#008349" d="M6.551,10.222c-1.811,0-4.14,1.88-6.551,4.463V25h26v-9.806c-2,1.603-4.547,3.635-6.659,3.635
		C15.647,18.829,9.712,10.222,6.551,10.222z"/>
</g>
<g>
	<path fill="#010202" d="M30.384,0.174h5.845v24.418h-5.845V0.174z"/>
	<path fill="#010202" d="M40.117,10.92h4.879v2.227c0.73-0.909,1.469-1.559,2.215-1.949s1.656-0.586,2.729-0.586
		c1.451,0,2.586,0.432,3.406,1.293c0.818,0.863,1.229,2.195,1.229,3.998v8.689h-5.266v-7.519c0-0.858-0.158-1.465-0.476-1.821
		s-0.764-0.534-1.339-0.534c-0.635,0-1.15,0.24-1.545,0.721s-0.592,1.343-0.592,2.588v6.565h-5.24V10.92z"/>
	<path fill="#010202" d="M64.076,5.719v5.201h2.885v3.836h-2.885V19.6c0,0.583,0.057,0.969,0.168,1.156
		c0.172,0.291,0.473,0.438,0.901,0.438c0.386,0,0.927-0.111,1.622-0.334l0.387,3.617c-1.297,0.283-2.507,0.424-3.631,0.424
		c-1.305,0-2.266-0.167-2.884-0.501s-1.075-0.843-1.371-1.523c-0.296-0.682-0.444-1.785-0.444-3.311v-4.81h-1.931V10.92h1.931V8.41
		L64.076,5.719z"/>
	<path fill="#010202" d="M84.689,19.057H74.184c0.095,0.841,0.322,1.467,0.683,1.879c0.507,0.593,1.167,0.889,1.982,0.889
		c0.515,0,1.005-0.129,1.468-0.387c0.283-0.163,0.588-0.451,0.914-0.862l5.162,0.477c-0.789,1.373-1.742,2.358-2.857,2.954
		c-1.116,0.597-2.717,0.895-4.803,0.895c-1.811,0-3.234-0.255-4.273-0.766c-1.039-0.51-1.898-1.321-2.582-2.433
		c-0.682-1.112-1.023-2.419-1.023-3.921c0-2.137,0.686-3.866,2.055-5.188c1.368-1.322,3.259-1.982,5.67-1.982
		c1.957,0,3.502,0.296,4.635,0.888c1.133,0.593,1.996,1.45,2.588,2.575c0.592,1.124,0.889,2.588,0.889,4.39V19.057z M79.359,16.546
		c-0.104-1.013-0.376-1.738-0.817-2.175c-0.442-0.439-1.024-0.658-1.745-0.658c-0.832,0-1.497,0.331-1.995,0.992
		c-0.317,0.412-0.519,1.025-0.604,1.841H79.359z"/>
	<path fill="#010202" d="M87.2,10.92h4.905v2.24c0.473-0.971,0.959-1.637,1.461-2.002s1.123-0.547,1.861-0.547
		c0.771,0,1.617,0.24,2.535,0.721l-1.622,3.732c-0.618-0.257-1.107-0.385-1.468-0.385c-0.687,0-1.219,0.282-1.596,0.849
		c-0.541,0.799-0.813,2.292-0.813,4.479v4.584H87.2V10.92z"/>
	<path fill="#010202" d="M114.507,19.057h-10.505c0.095,0.841,0.322,1.467,0.683,1.879c0.506,0.593,1.167,0.889,1.981,0.889
		c0.516,0,1.006-0.129,1.469-0.387c0.283-0.163,0.588-0.451,0.914-0.862l5.162,0.477c-0.789,1.373-1.742,2.358-2.858,2.954
		c-1.116,0.597-2.716,0.895-4.802,0.895c-1.811,0-3.235-0.255-4.273-0.766c-1.039-0.51-1.899-1.321-2.582-2.433
		c-0.682-1.112-1.023-2.419-1.023-3.921c0-2.137,0.686-3.866,2.055-5.188c1.367-1.322,3.258-1.982,5.67-1.982
		c1.957,0,3.502,0.296,4.635,0.888c1.133,0.593,1.996,1.45,2.588,2.575c0.592,1.124,0.888,2.588,0.888,4.39V19.057z M109.178,16.546
		c-0.104-1.013-0.376-1.738-0.818-2.175c-0.441-0.439-1.023-0.658-1.744-0.658c-0.832,0-1.498,0.331-1.995,0.992
		c-0.317,0.412-0.519,1.025-0.604,1.841H109.178z"/>
	<path fill="#010202" d="M117.147,5.719h5.253v18.873h-5.253V5.719z"/>
	<path fill="#010202" d="M140.979,19.057h-10.505c0.095,0.841,0.321,1.467,0.682,1.879c0.507,0.593,1.167,0.889,1.983,0.889
		c0.515,0,1.004-0.129,1.467-0.387c0.284-0.163,0.588-0.451,0.914-0.862l5.162,0.477c-0.789,1.373-1.742,2.358-2.857,2.954
		c-1.115,0.597-2.717,0.895-4.802,0.895c-1.812,0-3.235-0.255-4.274-0.766c-1.038-0.51-1.898-1.321-2.581-2.433
		c-0.683-1.112-1.023-2.419-1.023-3.921c0-2.137,0.685-3.866,2.054-5.188c1.369-1.322,3.259-1.982,5.67-1.982
		c1.957,0,3.502,0.296,4.635,0.888c1.133,0.593,1.996,1.45,2.588,2.575c0.592,1.124,0.889,2.588,0.889,4.39V19.057z M135.648,16.546
		c-0.104-1.013-0.375-1.738-0.817-2.175c-0.442-0.439-1.022-0.658-1.744-0.658c-0.833,0-1.497,0.331-1.995,0.992
		c-0.318,0.412-0.52,1.025-0.605,1.841H135.648z"/>
	<path fill="#010202" d="M153.633,19.236l4.982,0.566c-0.273,1.039-0.725,1.938-1.351,2.697c-0.628,0.76-1.427,1.35-2.401,1.77
		c-0.975,0.421-2.213,0.631-3.715,0.631c-1.449,0-2.658-0.135-3.623-0.405c-0.966-0.27-1.796-0.707-2.492-1.312
		c-0.694-0.604-1.239-1.314-1.635-2.128c-0.395-0.815-0.592-1.896-0.592-3.242c0-1.406,0.24-2.577,0.721-3.511
		c0.353-0.687,0.833-1.302,1.442-1.846c0.609-0.545,1.235-0.95,1.88-1.216c1.021-0.42,2.33-0.63,3.926-0.63
		c2.231,0,3.934,0.398,5.105,1.197c1.171,0.798,1.992,1.965,2.465,3.502l-4.931,0.656c-0.155-0.584-0.436-1.024-0.843-1.319
		c-0.408-0.296-0.955-0.444-1.642-0.444c-0.867,0-1.569,0.311-2.104,0.932c-0.537,0.621-0.806,1.561-0.806,2.82
		c0,1.123,0.267,1.975,0.799,2.558s1.21,0.874,2.034,0.874c0.686,0,1.264-0.177,1.731-0.527
		C153.053,20.506,153.402,19.967,153.633,19.236z"/>
</g>
<g>
	<path fill="#010202" d="M170.777,10.75c0,0.979-0.244,1.891-0.734,2.737c-0.49,0.845-1.157,1.511-2.003,1.999
		c-0.847,0.487-1.759,0.73-2.737,0.73c-0.975,0-1.885-0.243-2.73-0.73c-0.846-0.488-1.514-1.154-2.003-1.999
		c-0.489-0.847-0.734-1.759-0.734-2.737c0-0.975,0.245-1.887,0.734-2.734s1.157-1.516,2.003-2.003s1.756-0.731,2.73-0.731
		c0.979,0,1.891,0.244,2.737,0.731c0.846,0.487,1.513,1.155,2.003,2.003S170.777,9.775,170.777,10.75z M169.717,10.75
		c0-1.219-0.432-2.26-1.293-3.121c-0.863-0.863-1.902-1.294-3.121-1.294s-2.259,0.431-3.121,1.294
		c-0.862,0.861-1.293,1.902-1.293,3.121c0,1.218,0.431,2.258,1.293,3.12s1.902,1.294,3.121,1.294s2.258-0.432,3.121-1.294
		C169.285,13.008,169.717,11.968,169.717,10.75z M162.823,7.825h2.616c0.74,0,1.276,0.149,1.607,0.448
		c0.333,0.299,0.498,0.699,0.498,1.2c0,0.392-0.127,0.731-0.379,1.018c-0.254,0.286-0.652,0.495-1.197,0.624
		c0.225,0.086,0.389,0.176,0.494,0.271c0.148,0.134,0.304,0.332,0.467,0.596c0.01,0.019,0.324,0.582,0.945,1.691h-1.72
		c-0.56-1.113-0.935-1.779-1.124-1.996c-0.192-0.218-0.384-0.326-0.574-0.326c-0.043,0-0.104,0.007-0.18,0.021v2.301h-1.454V7.825z
		 M164.277,10.305h0.631c0.42,0,0.717-0.067,0.889-0.204c0.172-0.136,0.258-0.312,0.258-0.526s-0.082-0.391-0.246-0.527
		c-0.166-0.136-0.446-0.203-0.843-0.203h-0.688V10.305z"/>
</g>
</svg>
