<?xml version="1.0" encoding="utf-8"?>
<!-- Generator: Adobe Illustrator 25.0.0, SVG Export Plug-In . SVG Version: 6.00 Build 0)  -->
<svg version="1.1" xmlns="http://www.w3.org/2000/svg" xmlns:xlink="http://www.w3.org/1999/xlink" x="0px" y="0px"
	 viewBox="0 0 376.2 147.2" style="enable-background:new 0 0 376.2 147.2;" xml:space="preserve">
<style type="text/css">
	.st0{fill:#BABFC6;}
	.st1{fill:#005FA7;}
	.st2{fill:#FFFFFF;stroke:#015FA7;stroke-width:0.75;}
	.st3{fill:#FFFFFF;}
</style>
<g id="Capa_4">
	<polygon class="st0" points="73.3,15.5 13.3,133.1 134.6,133.4 	"/>
	<polygon class="st1" points="135.8,133.1 138,131.9 73.3,9.9 9.1,135.7 140,135.7 138,131.9 135.8,133.1 135.8,130.5 17.5,130.5 
		73.4,21.1 133.5,134.3 135.8,133.1 135.8,130.5 	"/>
</g>
<g id="Capa_3">
	<g>
		<path d="M138.3,102.2h4.2c0.8,0,1.4,0,1.8,0.1c0.4,0.1,0.8,0.3,1.1,0.6c0.3,0.3,0.6,0.7,0.8,1.2c0.2,0.5,0.3,1.1,0.3,1.7
			c0,0.7-0.1,1.3-0.4,1.9c-0.3,0.6-0.6,1-1.1,1.3c0.6,0.3,1.1,0.7,1.5,1.3c0.3,0.6,0.5,1.4,0.5,2.2c0,0.7-0.1,1.3-0.3,2
			c-0.2,0.6-0.5,1.1-0.9,1.5c-0.4,0.4-0.9,0.6-1.4,0.7c-0.4,0.1-1.2,0.1-2.5,0.1h-3.5V102.2z M140.4,104.6v3.4h1.4
			c0.8,0,1.3,0,1.5-0.1c0.4-0.1,0.6-0.2,0.9-0.5c0.2-0.3,0.3-0.7,0.3-1.2c0-0.5-0.1-0.8-0.3-1.1c-0.2-0.3-0.4-0.5-0.8-0.5
			c-0.2,0-0.8-0.1-1.8-0.1H140.4z M140.4,110.5v3.9h2c0.8,0,1.2,0,1.4-0.1c0.3-0.1,0.6-0.3,0.8-0.6c0.2-0.3,0.3-0.7,0.3-1.2
			c0-0.4-0.1-0.8-0.2-1.1c-0.2-0.3-0.4-0.5-0.7-0.7c-0.3-0.1-0.9-0.2-1.9-0.2H140.4z"/>
		<path d="M159.2,116.9h-2.3l-0.9-3.4h-4.2l-0.9,3.4h-2.2l4-14.7h2.2L159.2,116.9z M155.3,111.1l-1.4-5.4l-1.4,5.4H155.3z"/>
		<path d="M161.9,116.9v-14.7h2l4.3,9.9v-9.9h2v14.7h-2.1l-4.2-9.7v9.7H161.9z"/>
		<path d="M173.1,102.2h3.8c0.9,0,1.5,0.1,2,0.3c0.6,0.3,1.1,0.7,1.6,1.4c0.4,0.6,0.8,1.4,1,2.4c0.2,0.9,0.3,2.1,0.3,3.5
			c0,1.2-0.1,2.3-0.3,3.1c-0.3,1.1-0.6,1.9-1.1,2.6c-0.4,0.5-0.9,0.9-1.5,1.2c-0.5,0.2-1.1,0.3-1.9,0.3h-3.9V102.2z M175.2,104.7
			v9.7h1.6c0.6,0,1,0,1.3-0.1c0.3-0.1,0.6-0.3,0.8-0.6c0.2-0.3,0.4-0.8,0.5-1.4c0.1-0.7,0.2-1.6,0.2-2.7c0-1.1-0.1-2-0.2-2.6
			c-0.1-0.6-0.3-1.1-0.6-1.4c-0.3-0.3-0.6-0.6-1-0.7c-0.3-0.1-0.9-0.1-1.7-0.1H175.2z"/>
		<path d="M184.7,116.9v-14.7h7.7v2.5h-5.6v3.3h5.2v2.5h-5.2v4h5.8v2.5H184.7z"/>
		<path d="M198.6,102.2h2.1v9.3c0,1.2-0.1,2.2-0.2,2.8c-0.2,0.9-0.6,1.5-1.1,2.1c-0.5,0.5-1.2,0.8-2.1,0.8c-1,0-1.8-0.4-2.4-1.2
			c-0.6-0.8-0.8-2-0.8-3.6l2-0.3c0,0.9,0.1,1.5,0.3,1.8c0.2,0.5,0.6,0.8,1,0.8c0.5,0,0.8-0.2,1-0.6c0.2-0.4,0.3-1.2,0.3-2.4V102.2z"
			/>
		<path d="M213.3,116.9H211l-0.9-3.4H206l-0.9,3.4h-2.2l4-14.7h2.2L213.3,116.9z M209.4,111.1l-1.4-5.4l-1.4,5.4H209.4z"/>
		<path d="M214.9,112.1l2-0.3c0.1,1,0.4,1.7,0.7,2.1c0.4,0.5,0.9,0.7,1.5,0.7c0.7,0,1.2-0.2,1.5-0.6c0.3-0.4,0.5-0.9,0.5-1.4
			c0-0.3-0.1-0.6-0.2-0.9c-0.1-0.2-0.4-0.5-0.8-0.6c-0.2-0.1-0.8-0.3-1.7-0.6c-1.1-0.4-1.9-0.9-2.4-1.5c-0.6-0.8-0.9-1.8-0.9-3
			c0-0.7,0.2-1.5,0.4-2.1c0.3-0.7,0.7-1.1,1.3-1.5c0.6-0.3,1.2-0.5,2-0.5c1.3,0,2.3,0.4,2.9,1.2c0.7,0.8,1,1.9,1,3.3l-2.1,0.1
			c-0.1-0.8-0.3-1.3-0.6-1.6c-0.3-0.3-0.7-0.5-1.3-0.5c-0.6,0-1.1,0.2-1.4,0.5c-0.2,0.2-0.3,0.5-0.3,0.9c0,0.3,0.1,0.6,0.3,0.9
			c0.3,0.3,0.9,0.6,1.9,1c1,0.3,1.8,0.7,2.2,1.1c0.5,0.4,0.9,0.9,1.1,1.5c0.3,0.6,0.4,1.4,0.4,2.4c0,0.8-0.2,1.6-0.5,2.4
			c-0.3,0.7-0.8,1.3-1.4,1.6c-0.6,0.4-1.4,0.5-2.3,0.5c-1.3,0-2.3-0.4-3-1.3C215.4,115,215,113.8,214.9,112.1z"/>
		<path d="M234.8,116.9v-14.7h3.4c1.3,0,2.1,0.1,2.5,0.2c0.6,0.2,1.1,0.7,1.5,1.4c0.4,0.7,0.6,1.7,0.6,2.9c0,0.9-0.1,1.7-0.3,2.3
			c-0.2,0.6-0.5,1.1-0.9,1.5c-0.4,0.3-0.7,0.6-1.1,0.7c-0.5,0.1-1.2,0.2-2.2,0.2h-1.4v5.6H234.8z M236.9,104.7v4.2h1.1
			c0.8,0,1.4-0.1,1.7-0.2c0.3-0.2,0.5-0.4,0.7-0.7c0.2-0.3,0.2-0.7,0.2-1.1c0-0.5-0.1-1-0.3-1.3c-0.2-0.3-0.5-0.6-0.8-0.7
			c-0.2-0.1-0.8-0.1-1.5-0.1H236.9z"/>
		<path d="M244.7,109.6c0-1.5,0.2-2.8,0.5-3.8c0.2-0.8,0.6-1.4,1-2c0.4-0.6,0.9-1,1.3-1.3c0.6-0.4,1.4-0.6,2.2-0.6
			c1.5,0,2.8,0.7,3.7,2c0.9,1.3,1.4,3.2,1.4,5.6c0,2.4-0.5,4.2-1.4,5.6c-0.9,1.3-2.1,2-3.7,2c-1.5,0-2.8-0.7-3.7-2
			C245.2,113.8,244.7,112,244.7,109.6z M246.9,109.5c0,1.7,0.3,2.9,0.8,3.8c0.5,0.9,1.2,1.3,2.1,1.3c0.8,0,1.5-0.4,2.1-1.3
			c0.5-0.9,0.8-2.2,0.8-3.9c0-1.7-0.3-3-0.8-3.8c-0.5-0.8-1.2-1.3-2.1-1.3c-0.9,0-1.6,0.4-2.1,1.3
			C247.1,106.6,246.9,107.8,246.9,109.5z"/>
		<path d="M257.4,116.9v-14.7h4.4c1.1,0,1.9,0.1,2.4,0.4c0.5,0.3,0.9,0.7,1.2,1.4c0.3,0.7,0.5,1.5,0.5,2.3c0,1.1-0.2,2-0.7,2.7
			c-0.5,0.7-1.1,1.2-2,1.4c0.5,0.4,0.8,0.8,1.1,1.2c0.3,0.4,0.7,1.2,1.2,2.4l1.3,2.9h-2.5l-1.5-3.2c-0.5-1.1-0.9-1.9-1.1-2.2
			c-0.2-0.3-0.4-0.5-0.6-0.6c-0.2-0.1-0.6-0.2-1.1-0.2h-0.4v6.1H257.4z M259.5,108.4h1.6c1,0,1.6-0.1,1.9-0.2
			c0.2-0.1,0.4-0.3,0.6-0.6c0.1-0.3,0.2-0.7,0.2-1.1c0-0.5-0.1-0.9-0.3-1.2c-0.2-0.3-0.4-0.5-0.8-0.6c-0.2,0-0.7-0.1-1.5-0.1h-1.6
			V108.4z"/>
		<path d="M270.2,116.9v-12.2h-3.1v-2.5h8.2v2.5h-3.1v12.2H270.2z"/>
		<path d="M286.7,116.9h-2.3l-0.9-3.4h-4.2l-0.9,3.4h-2.2l4-14.7h2.2L286.7,116.9z M282.9,111.1l-1.5-5.4l-1.4,5.4H282.9z"/>
		<path d="M295.5,111.5l2,0.9c-0.3,1.6-0.8,2.8-1.6,3.6c-0.7,0.8-1.7,1.2-2.8,1.2c-1.4,0-2.5-0.7-3.4-2c-0.9-1.3-1.3-3.2-1.3-5.5
			c0-2.5,0.5-4.4,1.3-5.7c0.9-1.4,2.1-2,3.5-2c1.3,0,2.3,0.5,3.1,1.6c0.5,0.6,0.8,1.5,1.1,2.7l-2.1,0.7c-0.1-0.8-0.4-1.4-0.8-1.8
			c-0.4-0.4-0.9-0.7-1.4-0.7c-0.8,0-1.4,0.4-1.9,1.2c-0.5,0.8-0.7,2.1-0.7,3.8c0,1.9,0.2,3.2,0.7,4c0.5,0.8,1.1,1.2,1.9,1.2
			c0.6,0,1-0.2,1.4-0.8C295,113.4,295.3,112.6,295.5,111.5z"/>
		<path d="M309.3,116.9h-2.3l-0.9-3.4H302l-0.9,3.4h-2.2l4-14.7h2.2L309.3,116.9z M305.5,111.1l-1.4-5.4l-1.4,5.4H305.5z"/>
		<path d="M311.4,102.2h4.2c0.8,0,1.4,0,1.8,0.1c0.4,0.1,0.8,0.3,1.1,0.6c0.3,0.3,0.6,0.7,0.8,1.2c0.2,0.5,0.3,1.1,0.3,1.7
			c0,0.7-0.1,1.3-0.4,1.9c-0.3,0.6-0.6,1-1.1,1.3c0.6,0.3,1.1,0.7,1.5,1.3c0.3,0.6,0.5,1.4,0.5,2.2c0,0.7-0.1,1.3-0.3,2
			c-0.2,0.6-0.5,1.1-0.9,1.5c-0.4,0.4-0.9,0.6-1.4,0.7c-0.4,0.1-1.2,0.1-2.5,0.1h-3.5V102.2z M313.5,104.6v3.4h1.4
			c0.8,0,1.3,0,1.5-0.1c0.4-0.1,0.6-0.2,0.9-0.5c0.2-0.3,0.3-0.7,0.3-1.2c0-0.5-0.1-0.8-0.3-1.1c-0.2-0.3-0.4-0.5-0.8-0.5
			c-0.2,0-0.8-0.1-1.8-0.1H313.5z M313.5,110.5v3.9h2c0.8,0,1.2,0,1.4-0.1c0.3-0.1,0.6-0.3,0.8-0.6c0.2-0.3,0.3-0.7,0.3-1.2
			c0-0.4-0.1-0.8-0.2-1.1c-0.2-0.3-0.4-0.5-0.7-0.7c-0.3-0.1-0.9-0.2-1.9-0.2H313.5z"/>
		<path d="M323,116.9v-14.6h2.1v12.1h5.2v2.5H323z"/>
		<path d="M333.4,116.9v-14.7h7.7v2.5h-5.6v3.3h5.2v2.5h-5.2v4h5.8v2.5H333.4z"/>
		<path d="M342.6,112.1l2-0.3c0.1,1,0.4,1.7,0.7,2.1c0.4,0.5,0.9,0.7,1.5,0.7c0.7,0,1.2-0.2,1.5-0.6c0.3-0.4,0.5-0.9,0.5-1.4
			c0-0.3-0.1-0.6-0.2-0.9c-0.1-0.2-0.4-0.5-0.7-0.6c-0.2-0.1-0.8-0.3-1.7-0.6c-1.1-0.4-1.9-0.9-2.4-1.5c-0.6-0.8-0.9-1.8-0.9-3
			c0-0.7,0.1-1.5,0.4-2.1c0.3-0.7,0.7-1.1,1.3-1.5c0.6-0.3,1.2-0.5,2-0.5c1.3,0,2.3,0.4,2.9,1.2c0.7,0.8,1,1.9,1,3.3l-2.1,0.1
			c-0.1-0.8-0.3-1.3-0.6-1.6c-0.3-0.3-0.7-0.5-1.3-0.5c-0.6,0-1.1,0.2-1.4,0.5c-0.2,0.2-0.3,0.5-0.3,0.9c0,0.3,0.1,0.6,0.3,0.9
			c0.3,0.3,0.9,0.6,1.9,1c1,0.3,1.8,0.7,2.2,1.1c0.5,0.4,0.9,0.9,1.1,1.5c0.3,0.6,0.4,1.4,0.4,2.4c0,0.8-0.2,1.6-0.5,2.4
			c-0.3,0.7-0.8,1.3-1.4,1.6c-0.6,0.4-1.4,0.5-2.3,0.5c-1.3,0-2.3-0.4-3-1.3C343.1,115,342.7,113.8,342.6,112.1z"/>
	</g>
	<g>
		<path class="st2" d="M170.5,68.4h-16.8v6.1h19.2v13.9h-34.3V37.1h33.2v13.4h-18v4.6h16.8V68.4z"/>
		<path class="st2" d="M254.2,68h-16.8V74h19.2v14.4h-34.3V37.1h33.2v13h-18v4.6h16.8V68z"/>
		<path class="st2" d="M348.3,68h-16.8V74h19.2v14.4h-34.3V37.1h33.2v13h-18v4.6h16.8V68z"/>
		<path class="st2" d="M182,37.1h14.4v37.4h18.3v14H182V37.1z"/>
		<path class="st2" d="M306.2,86c-2,1-8.9,2.4-15.1,2.4c-17.7,0-25.8-11-25.8-25.1c0-16.8,11.6-27,27.1-27c6,0,11.4,2,14.6,3
			l-3.7,12.9c-2.8-1.3-5.9-2-10.1-2c-6.9,0-12.9,3.7-12.9,12.4c0,8.5,6.7,12.6,13.5,12.6c3.6,0,7.4-0.7,9.7-1.6L306.2,86z"/>
	</g>
	<g>
		<path class="st1" d="M168.4,66.1h-17V77h19v8.6H141V39.5h28.4V48h-18v9.6h17V66.1z"/>
		<path class="st1" d="M183.8,39.5h10.4v37.4h18.3v8.8h-28.7V39.5z"/>
		<path class="st1" d="M252.2,66.1h-17V77h18.9v8.6h-29.3V39.5h28.4V48h-18v9.6h17V66.1z"/>
		<path class="st1" d="M303.3,84.3c-1.8,0.9-6.2,2-11.8,2c-15.9,0-24.2-10-24.2-23.2c0-15.7,11.2-24.4,25.2-24.4
			c5.4,0,9.5,1.1,11.4,2l-2.2,8.2c-2.1-0.9-5-1.7-8.8-1.7c-8.2,0-14.6,5-14.6,15.3c0,9.2,5.5,15.1,14.7,15.1c3.2,0,6.6-0.6,8.8-1.5
			L303.3,84.3z"/>
		<path class="st1" d="M345.9,66.1h-17V77h18.9v8.6h-29.4V39.5H347V48h-18v9.6h17V66.1z"/>
	</g>
	<g>
		<path class="st1" d="M359.7,32.1c3.5,0,6.3,2.9,6.3,6.4c0,3.6-2.8,6.5-6.4,6.5c-3.5,0-6.4-2.8-6.4-6.5
			C353.3,35,356.2,32.1,359.7,32.1L359.7,32.1z M359.7,33.1c-2.8,0-5.2,2.4-5.2,5.4c0,3.1,2.3,5.5,5.2,5.5c2.9,0,5.2-2.4,5.2-5.4
			C364.9,35.5,362.6,33.1,359.7,33.1L359.7,33.1z M358.5,42.3h-1.1v-7.2c0.6-0.1,1.2-0.2,2-0.2c1.1,0,1.8,0.2,2.2,0.5
			c0.4,0.3,0.7,0.8,0.7,1.5c0,0.9-0.6,1.5-1.4,1.7v0.1c0.6,0.1,1.1,0.7,1.2,1.7c0.2,1.1,0.3,1.5,0.5,1.8h-1.2
			c-0.2-0.2-0.3-0.9-0.5-1.8c-0.2-0.9-0.6-1.3-1.5-1.3h-0.8V42.3z M358.5,38.3h0.8c0.9,0,1.7-0.3,1.7-1.2c0-0.6-0.5-1.3-1.7-1.3
			c-0.4,0-0.6,0-0.8,0.1V38.3z"/>
	</g>
</g>
<g id="Capa_2">
	<g>
		<path class="st3" d="M70.4,97.9c-7.9,0-14.4-6.5-14.4-14.4V45.8c0-7.9,6.5-14.4,14.4-14.4h33.1c7.9,0,14.4,6.5,14.4,14.4V55
			c0,5.3-3.9,9.6-9,10.4c5.1,0.8,9,5.1,9,10.4v7.7c0,7.9-6.5,14.4-14.4,14.4H70.4z M96.9,76.9v-1.1c0-5.3,3.9-9.6,9-10.4
			c-5.1-0.8-9-5.1-9-10.4v-2.7H77v24.5H96.9z"/>
		<path class="st1" d="M103.5,32.4c7.4,0,13.4,6,13.4,13.4V55c0,5.2-4.3,9.5-9.5,9.5s-9.5-4.3-9.5-9.5v-3.7H76v26.5h21.9v-2.1
			c0-5.2,4.3-9.5,9.5-9.5s9.5,4.3,9.5,9.5v7.7c0,7.4-6,13.4-13.4,13.4H70.4c-7.4,0-13.4-6-13.4-13.4V45.8c0-7.4,6-13.4,13.4-13.4
			H103.5 M103.5,30.4H70.4C62,30.4,55,37.3,55,45.8v37.7C55,92,62,98.9,70.4,98.9h33.1c8.5,0,15.4-6.9,15.4-15.4v-7.7
			c0-4.6-2.7-8.5-6.6-10.4c3.9-1.9,6.6-5.8,6.6-10.4v-9.3C118.9,37.3,112,30.4,103.5,30.4L103.5,30.4z M78,53.4h17.9V55
			c0,4.6,2.7,8.5,6.6,10.4c-3.9,1.9-6.6,5.8-6.6,10.4v0.1H78V53.4L78,53.4z"/>
	</g>
	<path class="st1" d="M103.5,94.9H70.4c-6.3,0-11.4-5.1-11.4-11.4V45.8c0-6.3,5.1-11.4,11.4-11.4h33.1c6.3,0,11.4,5.1,11.4,11.4V55
		c0,4.1-3.4,7.5-7.5,7.5s-7.5-3.4-7.5-7.5v-5.7H74v30.5h25.9v-4.1c0-4.1,3.4-7.5,7.5-7.5s7.5,3.4,7.5,7.5v7.7
		C114.9,89.8,109.8,94.9,103.5,94.9z"/>
	<g>
		<path class="st3" d="M47.4,120.2c-7.1,0-12.9-5.8-12.9-12.9V41.9c0-5.8,4.7-10.5,10.5-10.5s10.5,4.7,10.5,10.5v57.3h51.8
			c5.8,0,10.5,4.7,10.5,10.5s-4.7,10.5-10.5,10.5H47.4z"/>
		<path class="st1" d="M45,32.4c5.2,0,9.5,4.3,9.5,9.5v58.3h52.8c5.2,0,9.5,4.3,9.5,9.5s-4.3,9.5-9.5,9.5h-60
			c-6.6,0-11.9-5.3-11.9-11.9V41.9C35.5,36.6,39.8,32.4,45,32.4 M45,30.4c-6.3,0-11.5,5.2-11.5,11.5v65.4c0,7.7,6.2,13.9,13.9,13.9
			h60c6.3,0,11.5-5.2,11.5-11.5s-5.2-11.5-11.5-11.5H56.5V41.9C56.5,35.5,51.4,30.4,45,30.4L45,30.4z"/>
	</g>
	<path class="st1" d="M107.4,117.2h-60c-5.5,0-9.9-4.4-9.9-9.9V41.9c0-4.1,3.4-7.5,7.5-7.5s7.5,3.4,7.5,7.5v60.3h54.8
		c4.1,0,7.5,3.4,7.5,7.5S111.5,117.2,107.4,117.2z"/>
</g>
</svg>
